<svg xmlns="http://www.w3.org/2000/svg" viewBox="0 0 42.75 43.2"><title>arrow-down</title><g id="Layer_2" data-name="Layer 2"><g id="Layer_1-2" data-name="Layer 1"><path d="M22.29,40.7a2.5,2.5,0,0,1-1.85-.82l-17.29-19A2.5,2.5,0,0,1,5,16.74h7.86V5a2.5,2.5,0,0,1,2.5-2.5H28A2.5,2.5,0,0,1,30.55,5V16.74h7.2a2.5,2.5,0,0,1,1.94,4.08l-15.46,19a2.5,2.5,0,0,1-1.87.92Z" style="fill:#ed6c30"/><path d="M28,5V19.24h9.7l-15.46,19L5,19.24H15.36V5H28m0-5H15.36a5,5,0,0,0-5,5v9.24H5a5,5,0,0,0-3.69,8.37l17.29,19a5,5,0,0,0,3.69,1.63h.14a5,5,0,0,0,3.74-1.84l15.46-19a5,5,0,0,0-3.88-8.16H33V5a5,5,0,0,0-5-5Z" style="fill:#222"/></g></g></svg>